<svg xmlns="http://www.w3.org/2000/svg" width="25" height="64" fill="none" viewBox="0 0 25 64"><path fill="#c99247" d="M12.5 0C19.404 0 25 5.513 25 12.314c0 1.919-.447 3.736-1.242 5.355l.294-.004-.148.624-.158.668-.03.122-.083.095-.396.444-.014.018-.017.015-.062.058-.07.227q.024.06.047.123c.03.09.084.263.084.415 0-.03-.004-.037.004-.003q.01.04.03.103l.027.071.238.134.255.144v.28q.001.008.005.018l.002.006c.332.318.31.768.31.878 0 .08-.015.169-.025.227a12 12 0 0 1-.15.644l-.022.08-.046.068-.395.594-.004.006-.004.006-.317.445-.224.315v.519l-.092.13-.27.38-.134.441c-.03.113-.1.354-.166.541a33 33 0 0 1-.308.794l-.149.7-.011.054-.023.05-.22.481-.13.49v3.596l-.04.094-.14.328c-.016.078-.035.177-.058.274a2 2 0 0 1-.113.345v.056l.024.18.002.01.158.815.008.047v.756l-.006.04-.159.965-.011.074-.034.068-.554 1.112-.006.013-.302.565-.302.85-.008.026-.012.026-.387.792-.117.278v.258l.066.093.142.2-.071.234-.069.222.143.133-.066.283-.145.608v.463c.002.006.009.03.04.1.034.083.118.266.118.494v.77l.149.766.01.048v.477c.037.097.083.215.122.33.026.077.052.159.072.233.015.056.043.165.043.268v1.862l.12.456.433.677.043.065.02.075.154.58.15.42.01.028.237.816.009.031.005.033.022.148.195.298.275 1.094c.921.724 1.48 1.592 1.538 2.53.908.807 1.431 1.748 1.431 2.755 0 2.99-4.605 5.415-10.285 5.415S3.956 61.218 3.956 58.227c0-1.067.588-2.062 1.602-2.9.094-.807.561-1.559 1.308-2.206l.197-.7h-.285v-1.236l.255-.142.14-.08V50.7l.12-.14.197-.232v-.533l.059-.11.1-.188v-.388l.158-.147.158-.148v-.113l-.096-.151c-.094-.144-.21-.309-.286-.417l-.053-.074-.023-.087-.158-.594-.026-.096.013-.098.158-1.188.002-.014.003-.014.15-.772v-.623l.025-.076.29-.887V41.8l-.268-.566-.004-.01-.004-.008-.316-.741-.005-.011v-.001l-.236-.593-.237-.593-.037-.09v-1.232l-.178-.335-.018-.032-.013-.035-.395-1.113h-.001l-.304-.713-.04-.094v-.713l-.144-.61-.014-.056v-.646l-.292-.888-.024-.076v-4.461l-.465-.747-.454-.568-.043-.053-.027-.063-.283-.663-.393-.43-.522-.42-.048-.038-.037-.049-.395-.518-.025-.032-.02-.037-.237-.445-.004-.008-.004-.008-.396-.817-.05-.102v-1.53l-.079-.075-.089-.083-.04-.114-.158-.445-.005-.012.001-.001-.316-.963-.026-.076v-1.908l.082-.002A12.1 12.1 0 0 1 0 12.314C0 5.514 5.596 0 12.5 0"/><path fill="#f4d46f" d="M14.5 45c-3.346 3.813-6.275 3.62-7.067 2.975S8 40 12 39c3.346-3.813 8.708-11.644 9.5-11s-3.654 13.187-7 17"/><path fill="#33a677" d="M23.893 56.299c.312.233.547.946.553.964 0 0-.073.13 0 .445l.08.637v.846l-.475.743-.317.65-.415.685-1.424.89-2.591.89-2.452.741-2.058.21H11.55l-2.48-.357-2.505-.891-1.66-1.038-.87-1.483-.238-1.04v-1.038l.474-1.26 1.4 2.042 3.4 1.53 3.616.354 3.726-.235 3.179-.825 2.302-1.414 1.424-1.767.415-.353zm-2.928-4.97c.079.096.237.303.237.36 0 .059.158.308.158.604l.08.223v.973l-.713 1.008-1.502.72-1.899.576-1.503.288-1.583.144h-2.056l-2.057-.216-1.9-.504-.87-.649-.711-.863v-.661l.237-.445.237-.668.95.766 2.453.936 2.61.216 2.69-.144 2.294-.504 1.661-.864 1.029-1.08.079-.144z"/><path fill="#fcfbbc" d="M16.405 39.048c-.002.054-.17 4.79-2.71 7.094-1.559 2.13-5.292 2.583-5.724 2.34s2.423-2.052 3.982-4.181 4.02-5.496 4.452-5.253m8.317-27.055c-.001.051-.104 4.796-3.024 7.057-1.778 2.104-6.125 2.488-6.634 2.235-.508-.252 2.787-2.01 4.566-4.113 1.778-2.105 4.583-5.431 5.092-5.18m-6.754 16.653c1.312.877-.787 3.757-3.359 9.107-2.074 2.99-7.952 7.45-6.901 3.67-.578-.386 3.206-2.702 5.28-5.691 2.075-2.99 4.4-7.471 4.98-7.086"/><path fill="#f4d46f" d="M11.897 33.123C15.955 27.417 21.963 21.677 23.52 22.7s-.907-1.424-5.384 6.89c-4.058 5.705-8.945 12.407-10.5 11.385-1.557-1.022.203-2.145 4.26-7.85M8.658 1.321c3.99-.895 7.798.631 8.507 3.409s-1.95 5.755-5.94 6.65-7.8-.632-8.508-3.41S4.67 2.215 8.658 1.32M5 25.5c-2.5.56-3-2.5-3-5-.262-1.027.5 2.56 3 2s6.738 2.973 7 4-6.526 0-7-1"/></svg>
